<svg width="157" height="167" viewBox="0 0 157 167" fill="none" xmlns="http://www.w3.org/2000/svg">
<path d="M98.2759 44.7159V62.4305H58.0703V44.7159C58.0703 40.5949 61.8315 37.2751 66.5005 37.2751H89.8133C94.4823 37.2465 98.2759 40.5949 98.2759 44.7159Z" fill="white"/>
<path d="M78.1731 62.4304H58.0703V44.7158C58.0703 40.5948 61.8315 37.275 66.5005 37.275H78.1407V57.7657L78.1731 62.4304Z" fill="#8AF3FF"/>
<path d="M91.3049 162.538C87.7058 165.342 83.2638 166.773 78.7893 166.973C73.5042 167.231 68.1218 165.657 63.9715 162.251C-32.8787 83.6373 1.62036 39.6797 34.6279 39.9945C66.8897 40.2807 77.5896 60.0559 78.7893 62.5457C78.8865 62.7174 78.9189 62.8032 78.9189 62.8032C78.9189 62.8032 89.3595 40.5382 123.794 40.853C156.801 41.2251 190.165 85.8409 91.3049 162.538Z" fill="#8AF3FF"/>
<path opacity="0.5" d="M78.2052 62.545V166.944C72.9201 167.202 67.5378 165.628 63.3875 162.222C-33.4627 83.6079 1.03636 39.6504 34.0439 39.9652C66.3057 40.28 76.9731 60.0552 78.2052 62.545Z" fill="#00AB91"/>
<path d="M100.611 64.1767C119.06 46.9771 148.404 57.9092 133.748 92.1079" stroke="white" stroke-width="2" stroke-miterlimit="10"/>
<path d="M82.4789 36.0752C80.8021 37.4361 77.9959 39.1561 77.9959 39.1561C77.9959 39.1561 76.3642 34.6786 75.6037 31.7844C74.7963 28.7116 74.0514 23.9005 74.0514 23.9005C74.0514 23.9005 73.2208 19.5224 73.3235 16.5525L73.3253 16.5001C73.413 13.9625 73.4709 12.2883 74.2503 9.92686C74.9043 7.94521 75.3378 6.77066 76.5365 5.24234C77.723 3.72962 78.6244 3.13056 80.1849 2.32427C81.9286 1.42329 83.0392 1.07995 84.9179 1.1687C86.5851 1.24746 87.5498 1.57271 89.0613 2.45062C90.9162 3.5279 91.9078 4.50224 93.165 6.52726C94.1471 8.10914 94.6457 9.14808 95.0421 11.0963C95.5119 13.4055 95.3337 14.8672 94.9551 17.2098C94.5473 19.7329 93.9559 21.0663 92.9263 23.2956C91.51 26.3623 90.2666 27.738 88.25 30.2173C86.1785 32.764 84.9115 34.1008 82.4789 36.0752Z" stroke="white" stroke-width="2"/>
</svg>
