<svg width="157" height="170" viewBox="0 0 157 170" fill="none" xmlns="http://www.w3.org/2000/svg">
<path d="M98.2629 47.6943V65.4122H58.0625V47.6943C58.0625 43.5725 61.8232 40.2522 66.4916 40.2522H89.8014C94.5023 40.2236 98.2629 43.5725 98.2629 47.6943Z" fill="white"/>
<path d="M78.1962 65.412H58.0959V47.6941C58.0959 43.5724 61.8567 40.252 66.5251 40.252H78.1638V60.7464L78.1962 65.412Z" fill="#8AF3FF"/>
<path d="M91.3249 165.536C87.7263 168.341 83.2848 169.773 78.8108 169.973C73.5264 170.231 68.1448 168.656 63.9951 165.25C-32.8426 86.6214 1.65192 42.6558 34.6552 42.9707C66.9128 43.2569 77.6113 63.0356 78.8108 65.5259C78.9081 65.6976 78.9406 65.7836 78.9406 65.7836C78.9406 65.7836 89.3797 43.5145 123.809 43.8293C156.78 44.2014 190.173 88.854 91.3249 165.536Z" fill="#FF5287"/>
<path d="M78.1952 65.5266V169.945C72.9108 170.203 67.5291 168.628 63.3794 165.222C-33.4583 86.5935 1.0362 42.6279 34.0395 42.9427C66.2971 43.2576 76.9633 63.065 78.1952 65.5266Z" fill="#FF2E60"/>
<path d="M100.598 67.1572C119.044 49.9546 148.384 60.8887 133.731 95.0938" stroke="white" stroke-width="2" stroke-miterlimit="10"/>
<path d="M83.4789 36.0752C81.8021 37.4361 78.9959 39.1561 78.9959 39.1561C78.9959 39.1561 77.3642 34.6786 76.6037 31.7844C75.7963 28.7116 75.0514 23.9005 75.0514 23.9005C75.0514 23.9005 74.2208 19.5224 74.3235 16.5525L74.3253 16.5001C74.413 13.9625 74.4709 12.2883 75.2503 9.92686C75.9043 7.94521 76.3378 6.77066 77.5365 5.24234C78.723 3.72962 79.6244 3.13056 81.1849 2.32427C82.9286 1.42329 84.0392 1.07995 85.9179 1.1687C87.5851 1.24746 88.5498 1.57271 90.0613 2.45062C91.9162 3.5279 92.9078 4.50224 94.165 6.52726C95.1471 8.10914 95.6457 9.14808 96.0421 11.0963C96.5119 13.4055 96.3337 14.8672 95.9551 17.2098C95.5473 19.7329 94.9559 21.0663 93.9263 23.2956C92.51 26.3623 91.2666 27.738 89.25 30.2173C87.1785 32.764 85.9115 34.1008 83.4789 36.0752Z" stroke="white" stroke-width="2"/>
</svg>
